<?xml version="1.0" encoding="UTF-8"?>
<svg id="Capa_1" data-name="Capa 1" xmlns="http://www.w3.org/2000/svg" xmlns:xodm="http://www.corel.com/coreldraw/odm/2003" version="1.1" viewBox="0 0 408.5 240.6">
  <g id="Capa_1-2" data-name="Capa_1">
    <g id="_2425613698384" data-name=" 2425613698384">
      <path d="M120.6,117.9C54.2,117.2.6,67.2.6.5V0H0v117.9s120.6,0,120.6,0Z" fill="#9d4eff" stroke-width="0"/>
      <path d="M347.8,239.4h5.7c30.8-3.1,54.8-28.9,54.8-60.4v-.3h.3v-.2h-.3v-.3c0-31.5-24-57.4-54.8-60.4h-7.9l-224.1.3v122.4c.1,0,226.4-.6,226.4-.6v-.6h0Z" fill="#ffb743" stroke-width="0"/>
      <polygon points="0 119 121.4 118.2 121.6 240.6 120.6 240.6 0 240.6 0 119" fill="#08b1d2" stroke-width="0"/>
      <circle cx="344.4" cy="179" r="47.7" fill="#fefefe" stroke-width="0"/>
      <path d="M333.5,183.3h0c0-1.8-1.5-3.3-3.3-3.3-1.8,0-3.3,1.5-3.3,3.3,0,1.8,1.5,3.3,3.3,3.3,1.8,0,3.3-1.5,3.3-3.3h0s0,0,0,0ZM330.2,173.5h28.4s-2.9-5.9-2.9-5.9c-.2-.4-.6-.6-1-.6h-20.7c-.4,0-.8.2-1,.6l-2.9,5.9h0ZM358.6,180h0c-1.8,0-3.3,1.5-3.3,3.3h0c0,1.8,1.5,3.3,3.3,3.3h0c1.8,0,3.3-1.5,3.3-3.3h0c0-1.8-1.5-3.3-3.3-3.3ZM335.7,193.2v4.4h-10.9s0-4.4,0-4.4h-4.4v-8.2c0-4.1.9-8.2,2.7-11.9l4.1-8.4c1.3-2.6,4-4.3,6.9-4.3h20.7c2.9,0,5.6,1.7,6.9,4.3l4.1,8.4c1.8,3.7,2.7,7.8,2.7,11.9v8.2h-4.4s0,4.4,0,4.4h-10.9v-4.4h-17.5s0,0,0,0Z" fill="#08b1d2" stroke-width="0"/>
      <path d="M121.4,0H0C0,65.3,54.4,118.2,121.4,118.2h0V0Z" fill="#4b0984" stroke-width="0"/>
      <path d="M121.4,118.2l61.2-.3h0c0-32.7-27.4-59.3-61.2-59.3h0v59.6h0Z" fill="#ffb743" stroke-width="0"/>
      <path d="M121.4,118.2L0,117.9v121.6C0,172.3,54.3,118.2,121.4,118.2Z" fill="#db5939" fill-rule="evenodd" stroke-width="0"/>
    </g>
  </g>
</svg>