<?xml version="1.0" encoding="UTF-8"?>
<svg id="Capa_1" data-name="Capa 1" xmlns="http://www.w3.org/2000/svg" xmlns:xodm="http://www.corel.com/coreldraw/odm/2003" version="1.1" viewBox="0 0 864 98.5">
  <g id="Capa_1-2" data-name="Capa_1">
    <rect x="0" width="864" height="98.5" fill="#ffb743" stroke-width="0"/>
    <path d="M182.5,53.2h56.2l4.4-9.8h-67.2l-7.4,16.5c-2.1,4.7,1.3,10,6.5,10h56.3l5.1-11.3h-52.7c-1.6,0-2.7-1.7-2-3.1l1-2.3h0Z" fill="#fefefe" stroke-width="0"/>
    <path d="M256.3,52.3l3.5-7.6c1.6-3.4,5-5.6,8.7-5.6h49.1l5-10.7h-58.2c-5.7,0-10.9,3.3-13.3,8.4l-10.1,21.6c-2.5,5.3,1.4,11.5,7.3,11.5h54.9l5.3-11.4h-48.3c-3.2,0-5.3-3.3-4-6.2h0Z" fill="#fefefe" stroke-width="0"/>
    <path d="M376.1,44.9l-3.7,8.3c-1.4,3.1-4.5,5.1-7.8,5.1h-34.2c-2.3,0-3.8-2.3-2.8-4.4l3.9-8.6c1.6-3.6,5.2-5.9,9.1-5.9h32.1c2.9,0,4.7,2.9,3.5,5.5h0ZM380.8,28.5h-41.2c-8.4,0-16,5.2-19,13l-7.3,18.9c-1.8,4.7,1.6,9.7,6.6,9.7h45.8c7.2,0,13.7-4.5,16.4-11.2l7-18.2c2.3-5.8-2-12.1-8.3-12.1h0Z" fill="#fefefe" stroke-width="0"/>
    <path d="M250.2,28.5h-55.3c-7.3,0-13.9,4.2-17,10.7l-.3.6h67.2l5.5-11.4h0Z" fill="#fefefe" stroke-width="0"/>
    <path d="M533.2,44.6c-.8,1.8-2,3.3-3.5,4.6,1.5,1.3,2.7,2.8,3.5,4.6l4.6-4.6-4.6-4.6Z" fill="#fefefe" stroke-width="0"/>
    <path d="M510.9,30.3c1.3-1.5,2.8-2.7,4.6-3.5l-4.6-4.6-4.6,4.6c1.8.8,3.3,2,4.6,3.5Z" fill="#fefefe" stroke-width="0"/>
    <path d="M492,49.2c-1.5-1.3-2.7-2.8-3.5-4.6l-4.6,4.6,4.6,4.6c.8-1.8,2-3.3,3.5-4.6Z" fill="#fefefe" stroke-width="0"/>
    <path d="M510.9,68.2c-1.3,1.5-2.8,2.7-4.6,3.5l4.6,4.6,4.6-4.6c-1.8-.8-3.3-2-4.6-3.5Z" fill="#fefefe" stroke-width="0"/>
    <path d="M510.9,56.2c-1-3.3-3.7-5.9-7-7,3.3-1,5.9-3.7,7-7,1,3.3,3.7,5.9,7,7-3.3,1-5.9,3.7-7,7ZM531.7,39.1v-10.6h-10.6c-4.8,0-8.8,3.1-10.2,7.5-1.4-4.3-5.4-7.5-10.2-7.5h-10.6v10.6c0,4.8,3.1,8.8,7.5,10.2-4.3,1.4-7.5,5.4-7.5,10.2v10.6h10.6c4.8,0,8.8-3.1,10.2-7.5,1.4,4.3,5.4,7.5,10.2,7.5h10.6v-10.6c0-4.8-3.1-8.8-7.5-10.2,4.3-1.4,7.5-5.4,7.5-10.2Z" fill="#fefefe" stroke-width="0"/>
    <path d="M559,70.4c-1,0-1.9,0-2.8-.3-.9-.2-1.6-.5-2.3-.9-.7-.4-1.2-1-1.6-1.6-.4-.7-.6-1.4-.6-2.4v-.3c0,0,0-.2,0-.2h3.6s0,.1,0,.2v.2c0,.5.1,1,.4,1.3.3.4.7.6,1.2.8.5.2,1.2.3,1.9.3s.9,0,1.2,0c.4,0,.7-.1,1-.2.3-.1.5-.2.7-.4.2-.1.3-.3.4-.5,0-.2.1-.4.1-.7,0-.4-.1-.8-.4-1.1-.3-.3-.7-.5-1.2-.7-.5-.2-1-.4-1.7-.5-.6-.2-1.2-.3-1.9-.5-.6-.2-1.3-.4-1.9-.6-.6-.2-1.2-.6-1.6-.9-.5-.4-.9-.8-1.2-1.4-.3-.5-.4-1.2-.4-2s.2-1.5.5-2.1c.3-.6.8-1.1,1.5-1.5.6-.4,1.4-.7,2.2-.9.8-.2,1.7-.3,2.7-.3s1.8,0,2.6.3c.8.2,1.5.5,2.1.9.6.4,1.1.9,1.4,1.5.3.6.5,1.3.5,2.2v.3h-3.5v-.2c0-.4-.1-.8-.4-1.1-.3-.3-.6-.5-1.1-.7-.5-.2-1-.3-1.6-.3s-1.3,0-1.7.2c-.5.1-.8.3-1.1.6-.3.2-.4.5-.4.9s.1.7.4,1c.3.2.7.5,1.2.7.5.2,1,.4,1.7.5s1.2.3,1.9.5c.6.2,1.3.4,1.9.6.6.2,1.2.5,1.6.9.5.4.9.8,1.2,1.3.3.5.4,1.2.4,1.9,0,1.3-.3,2.3-.9,3.1-.6.8-1.4,1.3-2.5,1.7-1.1.4-2.3.5-3.6.5h0Z" fill="#fefefe" stroke-width="0"/>
    <path d="M573.2,67.8c.5,0,.9,0,1.2-.2.4-.1.7-.3.9-.6.2-.2.4-.5.6-.9.1-.3.2-.7.2-1.1v-.7c-.9,0-1.7,0-2.4.2-.7.1-1.3.3-1.7.6-.4.3-.6.7-.6,1.2s0,.5.2.7c.1.2.4.4.6.5.3.1.6.2,1,.2ZM572,70.4c-.4,0-.9,0-1.3-.1-.5,0-.9-.3-1.3-.5s-.8-.6-1-1.1-.4-1.1-.4-1.8.2-1.6.6-2.2c.4-.6.9-1,1.7-1.4.7-.3,1.6-.6,2.6-.7,1-.1,2.1-.2,3.3-.2v-.9c0-.4,0-.7-.2-1-.1-.3-.3-.5-.6-.7-.3-.2-.7-.2-1.2-.2s-1,0-1.3.2-.6.3-.7.5c-.1.2-.2.4-.2.7v.3h-3.3c0,0,0-.2,0-.2v-.3c0-.7.2-1.4.7-1.9.5-.5,1.1-1,1.9-1.2.8-.3,1.8-.4,2.9-.4s2.2.2,3,.5c.8.3,1.4.8,1.8,1.4.4.6.6,1.3.6,2.2v5.8c0,.3,0,.5.3.6.2.1.4.2.6.2h.8v2.2c-.2,0-.4.2-.7.3-.3,0-.7.1-1.2.1s-.9,0-1.2-.2c-.4-.1-.7-.3-.9-.6s-.4-.6-.5-.9h-.2c-.3.3-.6.6-1,.9-.4.3-.9.5-1.4.6-.5.1-1.1.2-1.8.2h0Z" fill="#fefefe" stroke-width="0"/>
    <path d="M582.7,70.1v-12.7h2.8l.3,1.7h.2c.3-.4.6-.8,1.1-1.1.4-.3.9-.5,1.4-.7.5-.2,1.1-.2,1.7-.2s1.6.2,2.2.5c.6.3,1.1.8,1.5,1.4.3.7.5,1.5.5,2.6v8.5h-3.4v-8c0-.4,0-.7-.1-1,0-.3-.2-.5-.4-.7-.2-.2-.4-.3-.7-.4-.3,0-.6-.1-.9-.1-.5,0-1,.1-1.4.4-.4.2-.7.6-.9,1-.2.4-.3.9-.3,1.4v7.4h-3.4,0Z" fill="#fefefe" stroke-width="0"/>
    <path d="M607.2,70.4c-1.3,0-2.4-.2-3.2-.6-.9-.4-1.6-.9-2.1-1.7-.5-.8-.7-1.7-.7-2.9v-.7h3.5v.7c0,.7.2,1.3.6,1.7.4.4,1,.5,1.8.5s1.4-.3,1.8-.8c.4-.5.6-1.3.6-2.3v-10.9h3.6v10.9c0,1.3-.2,2.5-.7,3.3-.5.9-1.1,1.6-2,2-.9.4-2,.7-3.2.7h0Z" fill="#fefefe" stroke-width="0"/>
    <path d="M620.6,70.4c-1.3,0-2.3-.4-3.1-1.1-.8-.7-1.1-1.9-1.1-3.4v-8.5h3.4v7.9c0,.4,0,.8.1,1,0,.3.2.5.4.7s.4.3.7.4c.3,0,.6.1.9.1.5,0,.9-.1,1.4-.4.4-.2.7-.6.9-1,.2-.4.3-.9.3-1.4v-7.4h3.4v12.7h-2.8l-.2-1.7h-.2c-.3.4-.7.8-1.1,1.1-.4.3-.9.5-1.4.7-.5.2-1.1.3-1.7.3h0Z" fill="#fefefe" stroke-width="0"/>
    <path d="M635.5,67.8c.5,0,.9,0,1.2-.2.4-.1.7-.3.9-.6.2-.2.4-.5.6-.9.1-.3.2-.7.2-1.1v-.7c-.9,0-1.7,0-2.4.2-.7.1-1.3.3-1.7.6-.4.3-.6.7-.6,1.2s0,.5.2.7.4.4.6.5c.3.1.6.2,1,.2h0ZM634.4,70.4c-.4,0-.9,0-1.3-.1-.5,0-.9-.3-1.3-.5s-.8-.6-1-1.1-.4-1.1-.4-1.8.2-1.6.6-2.2c.4-.6.9-1,1.7-1.4.7-.3,1.6-.6,2.6-.7,1-.1,2.1-.2,3.3-.2v-.9c0-.4,0-.7-.2-1-.1-.3-.3-.5-.6-.7-.3-.2-.7-.2-1.2-.2s-1,0-1.3.2-.6.3-.7.5c-.1.2-.2.4-.2.7v.3h-3.3c0,0,0-.2,0-.2v-.3c0-.7.2-1.4.7-1.9.5-.5,1.1-1,1.9-1.2.8-.3,1.8-.4,2.9-.4s2.2.2,3,.5c.8.3,1.4.8,1.8,1.4.4.6.6,1.3.6,2.2v5.8c0,.3,0,.5.3.6.2.1.4.2.6.2h.8v2.2c-.2,0-.4.2-.7.3-.3,0-.7.1-1.2.1s-.9,0-1.2-.2c-.4-.1-.7-.3-.9-.6-.2-.2-.4-.6-.5-.9h-.2c-.3.3-.6.6-1,.9-.4.3-.9.5-1.4.6-.5.1-1.1.2-1.8.2h0Z" fill="#fefefe" stroke-width="0"/>
    <path d="M645,70.1v-12.7h2.8l.3,1.7h.2c.3-.4.6-.8,1.1-1.1.4-.3.9-.5,1.4-.7.5-.2,1.1-.2,1.7-.2s1.6.2,2.2.5c.6.3,1.1.8,1.5,1.4.3.7.5,1.5.5,2.6v8.5h-3.4v-8c0-.4,0-.7-.1-1,0-.3-.2-.5-.4-.7-.2-.2-.4-.3-.7-.4-.3,0-.6-.1-.9-.1-.5,0-.9.1-1.4.4-.4.2-.7.6-.9,1-.2.4-.3.9-.3,1.4v7.4h-3.4Z" fill="#fefefe" stroke-width="0"/>
    <path d="M560.8,48.5c-2,0-3.6-.4-5-1.1-1.4-.7-2.4-1.8-3.1-3.3-.7-1.5-1.1-3.3-1.1-5.6,0-3.3.8-5.8,2.4-7.5,1.6-1.6,3.9-2.5,6.8-2.5s3.1.3,4.4.8c1.3.5,2.3,1.3,3,2.4.7,1.1,1.1,2.4,1.1,4.1h-2.7c0-1.1-.2-2-.7-2.8-.5-.7-1.1-1.3-2-1.6-.9-.4-1.9-.5-3-.5s-2.5.3-3.5.8c-1,.5-1.7,1.3-2.2,2.4-.5,1.1-.8,2.5-.8,4.2v.6c0,1.7.3,3.1.8,4.2.5,1.1,1.2,1.9,2.2,2.4,1,.5,2.1.8,3.5.8s2.2-.2,3.1-.5c.9-.4,1.5-.9,2-1.6.5-.7.7-1.7.7-2.8h2.6c0,1.7-.4,3-1.1,4.1-.7,1.1-1.7,1.9-3,2.4-1.3.5-2.7.8-4.3.8h0Z" fill="#fefefe" stroke-width="0"/>
    <polygon points="573 28.9 575.7 28.9 575.7 48.1 573 48.1 573 28.9" fill="#fefefe" stroke-width="0"/>
    <path d="M588.3,48.5c-1.6,0-3-.3-4.2-.8-1.2-.5-2.1-1.4-2.7-2.5-.6-1.1-.9-2.6-.9-4.4v-12h2.7v12.2c0,1.7.5,2.9,1.4,3.8s2.2,1.3,3.8,1.3,3-.4,3.9-1.3,1.4-2.1,1.4-3.8v-12.2h2.6v12c0,1.8-.3,3.2-1,4.4-.6,1.1-1.5,2-2.7,2.5-1.2.5-2.6.8-4.3.8h0Z" fill="#fefefe" stroke-width="0"/>
    <path d="M603.7,45.8h4.5c1.1,0,2-.1,2.9-.4.8-.3,1.6-.7,2.2-1.2.6-.6,1.1-1.3,1.4-2.2.3-.9.5-2,.5-3.2v-.6c0-1.3-.2-2.4-.5-3.2-.3-.9-.8-1.6-1.3-2.2-.6-.6-1.3-1-2.1-1.3-.8-.3-1.8-.4-2.9-.4h-4.5v14.6h0ZM601,48.1v-19.3h7.2c2,0,3.7.3,5.2,1,1.4.7,2.5,1.7,3.3,3.1.8,1.4,1.1,3.2,1.1,5.5s-.4,4-1.1,5.4c-.8,1.4-1.8,2.5-3.3,3.2-1.4.7-3.1,1-5.2,1h-7.2Z" fill="#fefefe" stroke-width="0"/>
    <path d="M624.5,41.1h7.6l-2.3-6c0-.2-.1-.4-.3-.7-.1-.3-.2-.6-.4-1-.1-.4-.3-.7-.4-1.1-.1-.4-.3-.7-.4-1.1h-.2c-.1.4-.3.8-.4,1.3-.2.5-.3,1-.5,1.4-.2.5-.3.8-.4,1.2l-2.4,6h0ZM619,48.1l7.6-19.2h3.5l7.6,19.2h-2.9l-1.9-4.8h-9.4l-1.9,4.8h-2.7Z" fill="#fefefe" stroke-width="0"/>
    <path d="M643.1,45.8h4.5c1.1,0,2-.1,2.9-.4.8-.3,1.6-.7,2.2-1.2.6-.6,1.1-1.3,1.4-2.2.3-.9.5-2,.5-3.2v-.6c0-1.3-.2-2.4-.5-3.2-.3-.9-.8-1.6-1.3-2.2-.6-.6-1.3-1-2.1-1.3-.8-.3-1.8-.4-2.9-.4h-4.5v14.6h0ZM640.4,48.1v-19.3h7.2c2,0,3.7.3,5.2,1,1.4.7,2.5,1.7,3.3,3.1.8,1.4,1.1,3.2,1.1,5.5s-.4,4-1.1,5.4c-.8,1.4-1.8,2.5-3.3,3.2-1.4.7-3.1,1-5.2,1h-7.2Z" fill="#fefefe" stroke-width="0"/>
    <polygon points="436.8 44.4 432 49.2 436.8 54.1 441.6 49.2 436.8 44.4" fill="#fefefe" stroke-width="0"/>
  </g>
</svg>