<?xml version="1.0" encoding="UTF-8"?>
<svg id="Capa_1" data-name="Capa 1" xmlns="http://www.w3.org/2000/svg" xmlns:xodm="http://www.corel.com/coreldraw/odm/2003" version="1.1" viewBox="0 0 290.1 122.8">
  <g id="Capa_1-2" data-name="Capa_1">
    <path d="M17.8,29.9h68l5.3-11.8H9.7L.8,38.1c-2.5,5.7,1.6,12.1,7.9,12.1h68.1l6.1-13.7H19c-1.9,0-3.2-2-2.5-3.8l1.2-2.8h0Z" fill="#1f4663" stroke-width="0"/>
    <path d="M107.2,28.8l4.3-9.2c1.9-4.1,6-6.7,10.6-6.7h59.4L187.4,0h-70.4C110.1,0,103.9,4,101,10.2l-12.2,26.1c-3,6.5,1.7,13.9,8.8,13.9h66.4l6.4-13.8h-58.5c-3.9,0-6.5-4-4.8-7.6h0Z" fill="#1f4663" stroke-width="0"/>
    <path d="M252.1,19.9l-4.5,10.1c-1.7,3.7-5.4,6.2-9.5,6.2h-41.4c-2.8,0-4.6-2.8-3.4-5.3l4.7-10.4c1.9-4.3,6.3-7.2,11-7.2h38.8c3.5,0,5.7,3.5,4.3,6.7ZM257.7,0h-49.8C197.7,0,188.6,6.3,184.9,15.7l-8.8,22.8c-2.2,5.6,2,11.7,8,11.7h55.4c8.8,0,16.6-5.4,19.8-13.6l8.5-22C270.5,7.6,265.3,0,257.7,0h0Z" fill="#1f4663" stroke-width="0"/>
    <path d="M99.7,0H32.8C24,0,16,5,12.1,13l-.4.8h81.4L99.7,0h0Z" fill="#1f4663" stroke-width="0"/>
    <polygon points="15 89.8 15 92.3 .3 92.3 .3 72 14.6 72 14.6 74.5 3.2 74.5 3.2 80.8 13.4 80.8 13.4 83.2 3.2 83.2 3.2 89.8 15 89.8" fill="#1f4663" stroke-width="0"/>
    <path d="M21.2,91.8c-1.4-.5-2.5-1.1-3.4-1.8l1.1-2.3c.8.7,1.8,1.3,3,1.7,1.2.4,2.5.7,3.7.7s2.9-.3,3.8-.9,1.2-1.3,1.2-2.3-.2-1.3-.7-1.7-1-.8-1.7-1c-.7-.2-1.6-.5-2.8-.8-1.5-.4-2.8-.7-3.7-1.1-.9-.4-1.7-.9-2.4-1.7-.7-.8-1-1.8-1-3.1s.3-2.1.9-2.9c.6-.9,1.4-1.6,2.6-2.1,1.2-.5,2.6-.8,4.3-.8s2.4.2,3.5.5c1.2.3,2.2.8,3,1.3l-1,2.3c-.9-.5-1.8-1-2.7-1.2s-1.9-.4-2.8-.4c-1.6,0-2.9.3-3.7.9-.8.6-1.2,1.4-1.2,2.3s.2,1.3.7,1.7c.5.4,1,.8,1.7,1,.7.2,1.6.5,2.8.8,1.5.4,2.8.7,3.7,1.1.9.4,1.7.9,2.4,1.7s1,1.8,1,3-.3,2-.9,2.9-1.5,1.6-2.6,2.1c-1.2.5-2.6.8-4.4.8s-3-.2-4.4-.7h0Z" fill="#1f4663" stroke-width="0"/>
    <polygon points="41.5 74.5 34.5 74.5 34.5 72 51.4 72 51.4 74.5 44.4 74.5 44.4 92.3 41.5 92.3 41.5 74.5" fill="#1f4663" stroke-width="0"/>
    <path d="M65.4,84.9l-4.4-10-4.4,10h8.8,0ZM66.5,87.2h-10.8l-2.2,5.1h-3l9.2-20.3h2.9l9.2,20.3h-3l-2.2-5.1h0Z" fill="#1f4663" stroke-width="0"/>
    <path d="M78,91.2c-1.6-.9-2.9-2.1-3.8-3.7-.9-1.6-1.4-3.4-1.4-5.3s.5-3.7,1.4-5.3c.9-1.6,2.2-2.8,3.9-3.7,1.6-.9,3.5-1.4,5.5-1.4s3,.3,4.4.8c1.3.5,2.4,1.3,3.4,2.4l-1.9,1.8c-1.5-1.6-3.4-2.4-5.7-2.4s-2.9.3-4.1,1c-1.2.7-2.2,1.6-2.9,2.8s-1,2.5-1,4,.3,2.8,1,4c.7,1.2,1.6,2.1,2.9,2.8,1.2.7,2.6,1,4.1,1,2.3,0,4.2-.8,5.7-2.4l1.9,1.8c-.9,1-2.1,1.8-3.4,2.4-1.3.5-2.8.8-4.4.8s-3.9-.5-5.5-1.4h0Z" fill="#1f4663" stroke-width="0"/>
    <polygon points="95.5 72 98.4 72 98.4 92.3 95.5 92.3 95.5 72" fill="#1f4663" stroke-width="0"/>
    <path d="M117.6,89c1.2-.7,2.1-1.6,2.8-2.8.7-1.2,1-2.5,1-4s-.3-2.8-1-4c-.7-1.2-1.6-2.1-2.8-2.8-1.2-.7-2.5-1-4-1s-2.8.3-4,1c-1.2.7-2.2,1.6-2.8,2.8s-1,2.5-1,4,.3,2.8,1,4c.7,1.2,1.6,2.1,2.8,2.8,1.2.7,2.6,1,4,1s2.8-.3,4-1ZM108.1,91.2c-1.6-.9-2.9-2.1-3.9-3.7s-1.4-3.4-1.4-5.3.5-3.7,1.4-5.3c.9-1.6,2.2-2.8,3.9-3.7,1.6-.9,3.5-1.4,5.5-1.4s3.9.4,5.5,1.4c1.6.9,2.9,2.1,3.9,3.7s1.4,3.4,1.4,5.3-.5,3.8-1.4,5.3c-.9,1.6-2.2,2.8-3.9,3.7-1.6.9-3.5,1.4-5.5,1.4s-3.9-.5-5.5-1.4Z" fill="#1f4663" stroke-width="0"/>
    <polygon points="146.3 72 146.3 92.3 143.9 92.3 131.7 77.2 131.7 92.3 128.8 92.3 128.8 72 131.2 72 143.4 87.2 143.4 72 146.3 72" fill="#1f4663" stroke-width="0"/>
    <path d="M164.3,84.9l-4.4-10-4.4,10h8.8,0ZM165.4,87.2h-10.8l-2.2,5.1h-3l9.2-20.3h2.9l9.2,20.3h-3l-2.2-5.1Z" fill="#1f4663" stroke-width="0"/>
    <polygon points="192.5 92.3 192.5 77.5 185.1 89.9 183.8 89.9 176.4 77.6 176.4 92.3 173.7 92.3 173.7 72 176 72 184.5 86.3 192.9 72 195.3 72 195.3 92.3 192.5 92.3" fill="#1f4663" stroke-width="0"/>
    <polygon points="201.4 72 204.3 72 204.3 92.3 201.4 92.3 201.4 72" fill="#1f4663" stroke-width="0"/>
    <polygon points="225.1 89.8 225.1 92.3 210.4 92.3 210.4 72 224.7 72 224.7 74.5 213.3 74.5 213.3 80.8 223.5 80.8 223.5 83.2 213.3 83.2 213.3 89.8 225.1 89.8" fill="#1f4663" stroke-width="0"/>
    <polygon points="247.3 72 247.3 92.3 244.9 92.3 232.7 77.2 232.7 92.3 229.8 92.3 229.8 72 232.2 72 244.4 87.2 244.4 72 247.3 72" fill="#1f4663" stroke-width="0"/>
    <polygon points="257.4 74.5 250.5 74.5 250.5 72 267.3 72 267.3 74.5 260.3 74.5 260.3 92.3 257.4 92.3 257.4 74.5" fill="#1f4663" stroke-width="0"/>
    <path d="M283.3,89c1.2-.7,2.1-1.6,2.8-2.8s1-2.5,1-4-.3-2.8-1-4c-.7-1.2-1.6-2.1-2.8-2.8-1.2-.7-2.5-1-4-1s-2.8.3-4,1c-1.2.7-2.2,1.6-2.8,2.8s-1,2.5-1,4,.3,2.8,1,4c.7,1.2,1.6,2.1,2.8,2.8,1.2.7,2.6,1,4,1s2.8-.3,4-1ZM273.8,91.2c-1.6-.9-2.9-2.1-3.9-3.7s-1.4-3.4-1.4-5.3.5-3.7,1.4-5.3c.9-1.6,2.2-2.8,3.9-3.7,1.6-.9,3.5-1.4,5.5-1.4s3.9.4,5.5,1.4c1.6.9,2.9,2.1,3.9,3.7s1.4,3.4,1.4,5.3-.5,3.8-1.4,5.3c-.9,1.6-2.2,2.8-3.9,3.7-1.6.9-3.5,1.4-5.5,1.4s-3.9-.5-5.5-1.4Z" fill="#1f4663" stroke-width="0"/>
    <path d="M5.2,121.5c-1.6-.9-2.9-2.1-3.8-3.7C.5,116.2,0,114.4,0,112.4s.5-3.8,1.4-5.3c.9-1.6,2.2-2.8,3.9-3.7,1.6-.9,3.5-1.4,5.5-1.4s3,.3,4.4.8c1.3.5,2.4,1.3,3.4,2.4l-1.9,1.8c-1.5-1.6-3.4-2.4-5.7-2.4s-2.9.3-4.1,1c-1.2.7-2.2,1.6-2.9,2.8s-1,2.5-1,4,.3,2.8,1,4c.7,1.2,1.6,2.1,2.9,2.8,1.2.7,2.6,1,4.1,1,2.3,0,4.2-.8,5.7-2.4l1.9,1.8c-.9,1-2.1,1.8-3.4,2.4-1.3.5-2.8.8-4.4.8s-3.9-.5-5.5-1.4h0Z" fill="#1f4663" stroke-width="0"/>
    <path d="M35.4,119.2c1.2-.7,2.1-1.6,2.8-2.8.7-1.2,1-2.5,1-4s-.3-2.8-1-4c-.7-1.2-1.6-2.1-2.8-2.8-1.2-.7-2.5-1-4-1s-2.8.3-4,1c-1.2.7-2.2,1.6-2.8,2.8s-1,2.5-1,4,.3,2.8,1,4c.7,1.2,1.6,2.1,2.8,2.8,1.2.7,2.6,1,4,1s2.8-.3,4-1ZM25.8,121.5c-1.6-.9-2.9-2.1-3.9-3.7s-1.4-3.4-1.4-5.3.5-3.7,1.4-5.3,2.2-2.8,3.9-3.7c1.6-.9,3.5-1.4,5.5-1.4s3.9.5,5.5,1.4c1.6.9,2.9,2.1,3.9,3.7.9,1.6,1.4,3.4,1.4,5.3s-.5,3.8-1.4,5.3c-.9,1.6-2.2,2.8-3.9,3.7-1.6.9-3.5,1.4-5.5,1.4s-3.9-.5-5.5-1.4Z" fill="#1f4663" stroke-width="0"/>
    <polygon points="64.1 102.3 64.1 122.6 61.7 122.6 49.5 107.4 49.5 122.6 46.6 122.6 46.6 102.3 49 102.3 61.2 117.4 61.2 102.3 64.1 102.3" fill="#1f4663" stroke-width="0"/>
    <polygon points="74.2 104.8 67.2 104.8 67.2 102.3 84 102.3 84 104.8 77.1 104.8 77.1 122.6 74.2 122.6 74.2 104.8" fill="#1f4663" stroke-width="0"/>
    <path d="M99.3,112.7c1-.8,1.5-1.9,1.5-3.4s-.5-2.6-1.5-3.4c-1-.8-2.4-1.2-4.2-1.2h-4.9v9.1h4.9c1.8,0,3.2-.4,4.2-1.2h0ZM100.8,122.6l-4.4-6.2c-.5,0-1,0-1.3,0h-5v6.2h-2.9v-20.3h7.9c2.6,0,4.7.6,6.2,1.9,1.5,1.3,2.3,3,2.3,5.2s-.4,2.9-1.2,4c-.8,1.1-1.9,1.9-3.3,2.4l4.8,6.8h-3.2Z" fill="#1f4663" stroke-width="0"/>
    <path d="M121.5,119.2c1.2-.7,2.1-1.6,2.8-2.8.7-1.2,1-2.5,1-4s-.3-2.8-1-4c-.7-1.2-1.6-2.1-2.8-2.8-1.2-.7-2.5-1-4-1s-2.8.3-4,1c-1.2.7-2.2,1.6-2.8,2.8s-1,2.5-1,4,.3,2.8,1,4c.7,1.2,1.6,2.1,2.8,2.8,1.2.7,2.6,1,4,1s2.8-.3,4-1ZM111.9,121.5c-1.6-.9-2.9-2.1-3.9-3.7s-1.4-3.4-1.4-5.3.5-3.7,1.4-5.3,2.2-2.8,3.9-3.7c1.6-.9,3.5-1.4,5.5-1.4s3.9.5,5.5,1.4c1.6.9,2.9,2.1,3.9,3.7.9,1.6,1.4,3.4,1.4,5.3s-.5,3.8-1.4,5.3c-.9,1.6-2.2,2.8-3.9,3.7-1.6.9-3.5,1.4-5.5,1.4s-3.9-.5-5.5-1.4Z" fill="#1f4663" stroke-width="0"/>
    <polygon points="132.7 102.3 135.6 102.3 135.6 120 146.6 120 146.6 122.6 132.7 122.6 132.7 102.3" fill="#1f4663" stroke-width="0"/>
    <path d="M162,115.2l-4.4-10-4.4,10h8.8,0ZM163,117.5h-10.8l-2.2,5.1h-3l9.2-20.3h2.9l9.2,20.3h-3l-2.2-5.1h0Z" fill="#1f4663" stroke-width="0"/>
    <path d="M179.7,120c1.6,0,3.1-.3,4.3-1,1.2-.6,2.2-1.5,2.9-2.7s1-2.5,1-4-.3-2.8-1-4c-.7-1.2-1.6-2-2.9-2.7-1.2-.6-2.7-1-4.3-1h-5.5v15.3h5.5ZM171.3,102.3h8.6c2.1,0,4.1.4,5.7,1.3,1.7.9,3,2,3.9,3.6.9,1.5,1.4,3.3,1.4,5.3s-.5,3.8-1.4,5.3-2.2,2.7-3.9,3.6c-1.7.9-3.6,1.3-5.7,1.3h-8.6v-20.3Z" fill="#1f4663" stroke-width="0"/>
    <path d="M208.4,119.2c1.2-.7,2.1-1.6,2.8-2.8s1-2.5,1-4-.3-2.8-1-4c-.7-1.2-1.6-2.1-2.8-2.8-1.2-.7-2.5-1-4-1s-2.8.3-4,1c-1.2.7-2.2,1.6-2.8,2.8s-1,2.5-1,4,.3,2.8,1,4c.7,1.2,1.6,2.1,2.8,2.8,1.2.7,2.6,1,4,1s2.8-.3,4-1ZM198.9,121.5c-1.6-.9-2.9-2.1-3.9-3.7s-1.4-3.4-1.4-5.3.5-3.7,1.4-5.3,2.2-2.8,3.9-3.7c1.6-.9,3.5-1.4,5.5-1.4s3.9.5,5.5,1.4c1.6.9,2.9,2.1,3.9,3.7.9,1.6,1.4,3.4,1.4,5.3s-.5,3.8-1.4,5.3c-.9,1.6-2.2,2.8-3.9,3.7-1.6.9-3.5,1.4-5.5,1.4s-3.9-.5-5.5-1.4Z" fill="#1f4663" stroke-width="0"/>
  </g>
</svg>