<?xml version="1.0" encoding="UTF-8"?>
<svg id="Capa_1" data-name="Capa 1" xmlns="http://www.w3.org/2000/svg" xmlns:xodm="http://www.corel.com/coreldraw/odm/2003" version="1.1" viewBox="0 0 302.6 240.6">
  <g id="Capa_1-2" data-name="Capa_1">
    <g id="_2425705012112" data-name=" 2425705012112">
      <path d="M181.9,122.7c66.4.6,120.1,50.6,120.1,117.3v.5h.5v-117.9h-120.6Z" fill="#9d4eff" stroke-width="0"/>
      <path d="M.3,61.6v.3H0v.2h.3v.3c0,31.5,24,57.4,54.8,60.4l126-.3V0c-.1,0-120.4.6-120.4.6C26.9,4.2.3,25.3.3,61.6h0Z" fill="#ffb743" stroke-width="0"/>
      <polygon points="302.5 121.6 181.1 122.4 181 0 181.9 0 302.5 0 302.5 121.6" fill="#1f4663" stroke-width="0"/>
      <circle cx="62.1" cy="61.6" r="47.7" fill="#fefefe" stroke-width="0"/>
      <path d="M51.2,66h0c0-1.8-1.5-3.3-3.3-3.3-1.8,0-3.3,1.5-3.3,3.3s1.5,3.3,3.3,3.3c1.8,0,3.3-1.5,3.3-3.3,0,0,0,0,0,0ZM47.9,56.2h28.4s-2.9-5.9-2.9-5.9c-.2-.4-.6-.6-1-.6h-20.7c-.4,0-.8.2-1,.6l-2.9,5.9ZM76.4,62.7h0c-1.8,0-3.3,1.5-3.3,3.3h0c0,1.8,1.5,3.3,3.3,3.3h0c1.8,0,3.3-1.5,3.3-3.3h0c0-1.8-1.5-3.3-3.3-3.3h0ZM53.4,75.8v4.4h-10.9v-4.4h-4.4v-8.2c0-4.1.9-8.2,2.7-11.9l4.1-8.4c1.3-2.6,4-4.3,6.9-4.3h20.7c2.9,0,5.6,1.7,6.9,4.3l4.1,8.4c1.8,3.7,2.7,7.8,2.7,11.9v8.2h-4.4v4.4h-10.9v-4.4h-17.5s0,0,0,0Z" fill="#08b1d2" stroke-width="0"/>
      <path d="M181.1,122.4l121.4.3V1.2c0,67.1-54.3,121.3-121.4,121.3h0Z" fill="#db5939" fill-rule="evenodd" stroke-width="0"/>
    </g>
  </g>
</svg>