<?xml version="1.0" encoding="UTF-8"?>
<svg id="Capa_1" data-name="Capa 1" xmlns="http://www.w3.org/2000/svg" xmlns:xodm="http://www.corel.com/coreldraw/odm/2003" version="1.1" viewBox="0 0 67.4 67.4">
  <g id="Capa_1-2" data-name="Capa_1">
    <path d="M36.5,47.7H8.4v-14.4c.9.2,1.8.4,2.8.4h2.8c3.4,0,6.4-1.5,8.4-3.9,2.1,2.4,5.1,3.9,8.4,3.9h5.6v14h0ZM67.3,21.7l-3.3-11.5C62.3,4.2,56.7,0,50.5,0h-2.8v11.2c0,3.7-5.6,3.7-5.6,0V0h-16.8v11.2c0,3.7-5.6,3.7-5.6,0V0h-2.8C10.6,0,5.1,4.2,3.4,10.2L0,21.7c-.5,3,.9,6,2.7,8.1v26.3c0,6.2,5,11.2,11.2,11.2h16.8c6.2,0,11.2-5,11.2-11.2v-24c1.1-.6,2-1.4,2.8-2.3,2.1,2.4,5.1,3.9,8.4,3.9h2.8c1,0,1.9-.2,2.8-.4v31.3c0,3.7,5.6,3.7,5.6,0V29.8c1.8-2.1,3.1-5.1,2.7-8.1h0Z" fill="#d85b35" stroke-width="0"/>
  </g>
</svg>