<?xml version="1.0" encoding="UTF-8"?>
<svg id="Capa_1" data-name="Capa 1" xmlns="http://www.w3.org/2000/svg" xmlns:xodm="http://www.corel.com/coreldraw/odm/2003" version="1.1" viewBox="0 0 56.5 76.7">
  <g id="Capa_1-2" data-name="Capa_1">
    <path d="M16.9,19.4c2.6-3.4,6.7-5.6,11.4-5.6s8.7,2.2,11.4,5.6c1.1,1.4,2,3.1,2.5,4.9h0c.4,1.3.6,2.6.6,3.9,0,7.9-6.4,14.4-14.4,14.4s-14.4-6.4-14.4-14.4.2-2.7.6-3.9c.5-1.8,1.4-3.4,2.5-4.9ZM29.8,0c-.5,0-1,0-1.5,0s-1,0-1.5,0C11.8.8,0,13.1,0,28.2s1.7,11,4.6,15.4l.8,1.2h0s21.5,31.1,21.5,31.1h0v.2c.4.4.9.6,1.4.6s1-.3,1.3-.6v-.2h.1l21.4-31.1h0c3.4-4.7,5.4-10.4,5.4-16.6C56.5,13.1,44.6.8,29.8,0Z" fill="#d85b35" fill-rule="evenodd" stroke-width="0"/>
  </g>
</svg>