<?xml version="1.0" encoding="UTF-8"?>
<svg id="Capa_1" data-name="Capa 1" xmlns="http://www.w3.org/2000/svg" xmlns:xodm="http://www.corel.com/coreldraw/odm/2003" version="1.1" viewBox="0 0 55.3 73.8">
  <g id="Capa_1-2" data-name="Capa_1">
    <path d="M43,27.7c0,1.7-1.4,3.1-3.1,3.1H15.4c-1.7,0-3.1-1.4-3.1-3.1s1.4-3.1,3.1-3.1h24.6c1.7,0,3.1,1.4,3.1,3.1ZM33.8,43H15.4c-1.7,0-3.1-1.4-3.1-3.1s1.4-3.1,3.1-3.1h18.4c1.7,0,3.1,1.4,3.1,3.1s-1.4,3.1-3.1,3.1ZM15.4,0C6.9,0,0,6.9,0,15.4v55.3c0,1.7,1.4,3.1,3.1,3.1s1.2-.2,1.7-.5l6.5-4.4,6.5,4.4c1,.7,2.4.7,3.5,0l6.4-4.4,6.4,4.4c1,.7,2.4.7,3.5,0l6.4-4.4,6.4,4.4c1.4.9,3.3.6,4.3-.8.4-.5.5-1.1.5-1.7V15.4C55.3,6.9,48.4,0,39.9,0H15.4h0Z" fill="#d85b35" stroke-width="0"/>
  </g>
</svg>