<?xml version="1.0" encoding="UTF-8"?>
<svg id="Capa_1" data-name="Capa 1" xmlns="http://www.w3.org/2000/svg" xmlns:xodm="http://www.corel.com/coreldraw/odm/2003" version="1.1" viewBox="0 0 83.8 64.8">
  <g id="Capa_1-2" data-name="Capa_1">
    <path d="M22.9,40h0c0-3.2-2.6-5.7-5.7-5.7s-5.7,2.6-5.7,5.7,2.6,5.7,5.7,5.7,5.7-2.6,5.7-5.7h0,0ZM17.1,22.9h49.6l-5-10.4c-.3-.7-1-1.1-1.7-1.1H23.8c-.7,0-1.4.4-1.7,1.1l-5,10.4h0ZM66.7,34.3h0c-3.2,0-5.7,2.6-5.7,5.7h0c0,3.2,2.6,5.7,5.7,5.7h0c3.2,0,5.7-2.6,5.7-5.7h0c0-3.2-2.6-5.7-5.7-5.7h0ZM26.6,57.2v7.6H7.6v-7.6H0v-14.2c0-7.2,1.6-14.2,4.7-20.7l7.1-14.7C14,3,18.7,0,23.8,0h36.1c5.1,0,9.8,2.9,12,7.5l7.1,14.7c3.1,6.5,4.7,13.5,4.7,20.7v14.2h-7.6v7.6h-19v-7.6h-30.5,0Z" fill="#d85b35" stroke-width="0"/>
  </g>
</svg>