<?xml version="1.0" encoding="UTF-8"?>
<svg id="Capa_1" data-name="Capa 1" xmlns="http://www.w3.org/2000/svg" xmlns:xodm="http://www.corel.com/coreldraw/odm/2003" version="1.1" viewBox="0 0 229.5 321.1">
  <g id="Capa_1-2" data-name="Capa_1">
    <g id="_2372857215104" data-name=" 2372857215104">
      <path d="M209.9,95.1c-3.4,7.5-8.4,14.2-14.7,19.6,6.3,5.4,11.3,12.1,14.7,19.6l19.6-19.6s-19.6-19.6-19.6-19.6Z" fill="#9d4eff" stroke-width="0"/>
      <path d="M114.8,34.3c5.4-6.3,12.1-11.3,19.6-14.7L114.8,0l-19.6,19.6c7.5,3.4,14.2,8.4,19.6,14.7Z" fill="#9d4eff" stroke-width="0"/>
      <path d="M34.3,114.8c-6.3-5.4-11.3-12.1-14.7-19.6L0,114.8l19.6,19.6c3.4-7.5,8.4-14.2,14.7-19.6Z" fill="#9d4eff" stroke-width="0"/>
      <path d="M114.8,195.2c-5.4,6.3-12.1,11.3-19.6,14.7l19.6,19.6,19.6-19.6c-7.5-3.4-14.2-8.4-19.6-14.7Z" fill="#9d4eff" stroke-width="0"/>
      <path d="M114.8,144.4c-4.4-14.1-15.6-25.3-29.7-29.7,14.1-4.4,25.3-15.6,29.7-29.7,4.4,14.1,15.6,25.3,29.7,29.7-14.1,4.4-25.3,15.6-29.7,29.7ZM203.3,71.5V26.2h-45.3c-20.3,0-37.5,13.4-43.2,31.8-5.8-18.4-22.9-31.8-43.2-31.8H26.2v45.3c0,20.3,13.4,37.5,31.8,43.2-18.4,5.8-31.8,22.9-31.8,43.2v45.3h45.3c20.3,0,37.5-13.3,43.2-31.7,5.8,18.4,22.9,31.7,43.2,31.7h45.3v-45.3c0-20.3-13.4-37.5-31.8-43.2,18.4-5.8,31.8-22.9,31.8-43.2Z" fill="#ffc14f" stroke-width="0"/>
      <path d="M35,321.1c-1.7,0-3.3-.2-4.8-.5-1.5-.3-2.9-.9-4.1-1.6-1.2-.7-2.1-1.7-2.8-2.8s-1-2.5-1-4.2v-.4c0-.2,0-.3,0-.4h6.3c0,0,0,.2,0,.3v.4c0,.9.2,1.7.7,2.3.5.6,1.2,1.1,2.2,1.4,1,.3,2.1.5,3.4.5s1.6,0,2.2-.1c.6-.1,1.2-.2,1.7-.4.5-.2.9-.4,1.2-.7.3-.3.6-.6.7-.9s.2-.7.2-1.1c0-.8-.2-1.4-.7-1.9-.5-.5-1.2-.9-2-1.2-.9-.3-1.8-.6-2.9-.9-1.1-.3-2.2-.6-3.3-.9-1.1-.3-2.2-.7-3.3-1.1s-2-1-2.9-1.6c-.9-.6-1.5-1.4-2-2.4-.5-1-.8-2.1-.8-3.5s.3-2.7.9-3.7c.6-1,1.5-1.9,2.6-2.6s2.4-1.2,3.8-1.5,3-.5,4.7-.5,3.1.2,4.5.5c1.4.3,2.7.8,3.7,1.6,1.1.7,1.9,1.6,2.5,2.7.6,1.1.9,2.3.9,3.8v.5h-6.2v-.3c0-.8-.2-1.4-.7-2s-1.1-1-1.9-1.3c-.8-.3-1.8-.5-2.9-.5s-2.2.1-3,.3c-.8.2-1.5.6-1.9,1-.4.4-.7,1-.7,1.6s.2,1.2.7,1.7c.5.4,1.2.8,2,1.1.9.3,1.8.6,2.9.9s2.2.5,3.3.8c1.1.3,2.2.7,3.3,1.1,1.1.4,2,1,2.9,1.6.9.6,1.5,1.4,2,2.4.5.9.8,2.1.8,3.4,0,2.2-.5,4-1.6,5.4-1.1,1.4-2.5,2.4-4.4,3-1.9.6-4,.9-6.4.9h0Z" fill="#727376" stroke-width="0"/>
      <path d="M59.9,316.7c.8,0,1.5-.1,2.1-.4.6-.2,1.1-.6,1.6-1,.4-.4.8-.9,1-1.5.2-.6.4-1.2.4-1.9v-1.2c-1.6,0-3,.1-4.2.3-1.2.2-2.2.6-3,1.1-.7.5-1.1,1.2-1.1,2.1s.1.9.4,1.3.6.7,1.1.8c.5.2,1.1.3,1.7.3ZM57.9,321.1c-.7,0-1.5,0-2.4-.3-.8-.2-1.6-.5-2.4-.9-.7-.4-1.3-1.1-1.8-1.9-.5-.8-.7-1.9-.7-3.2s.3-2.8,1-3.9c.7-1,1.6-1.8,2.9-2.4,1.3-.6,2.8-1,4.5-1.2,1.8-.2,3.7-.3,5.8-.3v-1.7c0-.6-.1-1.2-.3-1.7s-.6-.9-1.1-1.1-1.3-.4-2.2-.4-1.7.1-2.3.3c-.6.2-1,.5-1.2.9-.2.4-.4.7-.4,1.2v.5h-5.7c0-.1,0-.3,0-.4v-.5c0-1.3.4-2.4,1.2-3.4s1.9-1.7,3.4-2.2,3.1-.8,5.1-.8,3.8.3,5.2.8,2.5,1.3,3.2,2.4c.7,1,1.1,2.4,1.1,3.9v10.1c0,.5.1.9.4,1.1.3.2.6.4,1,.4h1.4v3.9c-.3.1-.7.3-1.3.4-.6.2-1.3.2-2.2.2s-1.6-.1-2.2-.4c-.6-.2-1.2-.6-1.6-1-.4-.4-.7-1-.9-1.6h-.3c-.5.6-1.1,1.1-1.8,1.6-.7.5-1.5.8-2.4,1.1-.9.3-2,.4-3.2.4h0Z" fill="#727376" stroke-width="0"/>
      <path d="M76.6,320.6v-22.3h4.9l.5,3.1h.3c.5-.7,1.1-1.4,1.8-1.9.7-.5,1.5-.9,2.4-1.2.9-.3,1.9-.4,3-.4s2.8.3,3.9.8c1.1.5,2,1.4,2.6,2.5.6,1.2.9,2.7.9,4.5v14.9h-5.9v-14c0-.7,0-1.3-.3-1.8-.2-.5-.4-.9-.7-1.2-.3-.3-.7-.6-1.2-.7-.5-.1-1-.2-1.6-.2-.9,0-1.7.2-2.4.6-.7.4-1.3,1-1.7,1.7-.4.7-.6,1.6-.6,2.5v13h-5.9,0Z" fill="#727376" stroke-width="0"/>
      <path d="M119.8,321.1c-2.2,0-4.1-.3-5.7-1-1.6-.7-2.8-1.7-3.6-3s-1.3-3-1.3-5.1v-1.3h6.2v1.3c0,1.3.4,2.3,1.1,2.9.7.6,1.8,1,3.3,1s2.4-.5,3.1-1.4c.7-.9,1.1-2.2,1.1-4v-19.1h6.4v19.1c0,2.4-.4,4.3-1.2,5.9-.8,1.6-2,2.7-3.6,3.5-1.6.8-3.5,1.1-5.7,1.1h0Z" fill="#727376" stroke-width="0"/>
      <path d="M143.3,321.1c-2.3,0-4.1-.6-5.4-1.9-1.3-1.2-2-3.3-2-6v-14.9h5.9v14c0,.7,0,1.4.3,1.8.2.5.4.9.7,1.2.3.3.7.5,1.2.7.5.1,1,.2,1.6.2.9,0,1.7-.2,2.4-.6.7-.4,1.3-1,1.7-1.8.4-.7.6-1.6.6-2.5v-13h5.9v22.3h-4.8l-.4-3.1h-.3c-.5.7-1.2,1.3-1.9,1.9-.7.5-1.5,1-2.4,1.3-.9.3-1.9.4-3,.4h0Z" fill="#727376" stroke-width="0"/>
      <path d="M169.5,316.7c.8,0,1.5-.1,2.1-.4.6-.2,1.1-.6,1.6-1,.4-.4.8-.9,1-1.5.2-.6.4-1.2.4-1.9v-1.2c-1.6,0-3,.1-4.2.3-1.2.2-2.2.6-3,1.1-.7.5-1.1,1.2-1.1,2.1s.1.9.4,1.3.6.7,1.1.8c.5.2,1.1.3,1.7.3h0ZM167.5,321.1c-.7,0-1.5,0-2.4-.3-.8-.2-1.6-.5-2.4-.9-.7-.4-1.3-1.1-1.8-1.9-.5-.8-.7-1.9-.7-3.2s.3-2.8,1-3.9c.7-1,1.6-1.8,2.9-2.4,1.3-.6,2.8-1,4.5-1.2,1.8-.2,3.7-.3,5.8-.3v-1.7c0-.6-.1-1.2-.3-1.7s-.6-.9-1.1-1.1c-.5-.3-1.3-.4-2.2-.4s-1.7.1-2.3.3c-.6.2-1,.5-1.2.9-.2.4-.4.7-.4,1.2v.5h-5.7c0-.1,0-.3,0-.4v-.5c0-1.3.4-2.4,1.2-3.4s1.9-1.7,3.4-2.2,3.1-.8,5.1-.8,3.8.3,5.2.8,2.5,1.3,3.2,2.4c.7,1,1.1,2.4,1.1,3.9v10.1c0,.5.1.9.4,1.1.3.2.6.4,1,.4h1.4v3.9c-.3.1-.7.3-1.3.4-.6.2-1.3.2-2.2.2s-1.6-.1-2.2-.4c-.6-.2-1.2-.6-1.6-1-.4-.4-.7-1-.9-1.6h-.3c-.5.6-1.1,1.1-1.8,1.6-.7.5-1.5.8-2.4,1.1-.9.3-2,.4-3.2.4h0Z" fill="#727376" stroke-width="0"/>
      <path d="M186.3,320.6v-22.3h4.9l.5,3.1h.3c.5-.7,1.1-1.4,1.8-1.9.7-.5,1.5-.9,2.4-1.2.9-.3,1.9-.4,3-.4s2.8.3,3.9.8c1.1.5,2,1.4,2.6,2.5.6,1.2.9,2.7.9,4.5v14.9h-5.9v-14c0-.7,0-1.3-.3-1.8-.2-.5-.4-.9-.7-1.2-.3-.3-.7-.6-1.2-.7-.5-.1-1-.2-1.6-.2-.9,0-1.7.2-2.4.6-.7.4-1.3,1-1.7,1.7-.4.7-.6,1.6-.6,2.5v13h-5.9,0Z" fill="#727376" stroke-width="0"/>
      <path d="M38.2,282.6c-3.5,0-6.4-.6-8.8-1.9-2.4-1.3-4.2-3.2-5.5-5.8-1.3-2.6-1.9-5.9-1.9-9.8,0-5.9,1.4-10.3,4.3-13.2,2.9-2.9,6.8-4.3,11.9-4.3s5.5.5,7.7,1.4c2.2.9,4,2.4,5.3,4.2s1.9,4.3,1.9,7.1h-4.7c0-2-.4-3.6-1.3-4.9-.8-1.3-2-2.2-3.5-2.9-1.5-.6-3.3-1-5.3-1s-4.4.5-6.1,1.4c-1.7.9-3,2.3-3.9,4.3-.9,1.9-1.3,4.4-1.3,7.4v1c0,3,.4,5.4,1.3,7.3.9,1.9,2.2,3.3,3.9,4.2,1.7.9,3.7,1.3,6.1,1.3s3.9-.3,5.5-.9c1.5-.6,2.7-1.6,3.6-2.9.8-1.3,1.3-2.9,1.3-4.9h4.6c0,2.9-.6,5.3-2,7.2-1.3,1.9-3.1,3.3-5.3,4.2s-4.8,1.4-7.6,1.4h0Z" fill="#727376" stroke-width="0"/>
      <polygon points="59.6 248.2 64.3 248.2 64.3 282 59.6 282 59.6 248.2" fill="#727376" stroke-width="0"/>
      <path d="M86.5,282.6c-2.9,0-5.3-.5-7.4-1.4-2.1-.9-3.7-2.4-4.8-4.4-1.1-2-1.7-4.5-1.7-7.7v-21h4.7v21.5c0,3,.8,5.2,2.4,6.7,1.6,1.5,3.8,2.2,6.7,2.2s5.2-.7,6.9-2.2c1.6-1.5,2.5-3.7,2.5-6.7v-21.5h4.6v21c0,3.1-.6,5.7-1.7,7.7-1.1,2-2.7,3.4-4.8,4.4-2.1.9-4.6,1.4-7.5,1.4Z" fill="#727376" stroke-width="0"/>
      <path d="M113.6,278h7.8c1.9,0,3.6-.2,5-.7,1.5-.5,2.7-1.2,3.8-2.2,1.1-1,1.8-2.3,2.4-3.8.5-1.6.8-3.4.8-5.6v-1c0-2.2-.3-4.1-.8-5.7-.5-1.6-1.3-2.8-2.4-3.8s-2.3-1.7-3.8-2.2c-1.5-.5-3.2-.7-5.1-.7h-7.8v25.8h0ZM108.9,282v-33.8h12.6c3.6,0,6.6.6,9.1,1.8,2.5,1.2,4.4,3,5.7,5.5,1.3,2.5,2,5.7,2,9.6s-.7,7.1-2,9.6c-1.3,2.5-3.2,4.4-5.7,5.6-2.5,1.2-5.5,1.8-9.1,1.8h-12.6Z" fill="#727376" stroke-width="0"/>
      <path d="M150.2,269.6h13.4l-4.1-10.6c0-.3-.2-.7-.4-1.2s-.4-1.1-.6-1.8-.5-1.3-.7-2c-.2-.7-.4-1.3-.6-1.8h-.3c-.2.7-.5,1.4-.8,2.3-.3.9-.6,1.7-.9,2.5-.3.8-.5,1.5-.7,2.1l-4.1,10.6h0ZM140.5,282l13.4-33.8h6.2l13.4,33.8h-5.1l-3.3-8.4h-16.5l-3.3,8.4h-4.8Z" fill="#727376" stroke-width="0"/>
      <path d="M182.8,278h7.8c1.9,0,3.6-.2,5-.7,1.5-.5,2.7-1.2,3.8-2.2,1.1-1,1.8-2.3,2.4-3.8.5-1.6.8-3.4.8-5.6v-1c0-2.2-.3-4.1-.8-5.7-.5-1.6-1.3-2.8-2.4-3.8s-2.3-1.7-3.8-2.2c-1.5-.5-3.2-.7-5.1-.7h-7.8v25.8h0ZM178.1,282v-33.8h12.6c3.6,0,6.6.6,9.1,1.8,2.5,1.2,4.4,3,5.7,5.5,1.3,2.5,2,5.7,2,9.6s-.7,7.1-2,9.6c-1.3,2.5-3.2,4.4-5.7,5.6-2.5,1.2-5.5,1.8-9.1,1.8h-12.6Z" fill="#727376" stroke-width="0"/>
    </g>
  </g>
</svg>