<?xml version="1.0" encoding="UTF-8"?>
<svg id="Capa_1" data-name="Capa 1" xmlns="http://www.w3.org/2000/svg" xmlns:xodm="http://www.corel.com/coreldraw/odm/2003" version="1.1" viewBox="0 0 125.9 87.1">
  <g id="Capa_1-2" data-name="Capa_1">
    <path d="M56.6.2C27.9,2.2-4.9,18.2.6,49.6c7.2,40.4,77.4,47.8,109,24.1,8.6-6.5,18.5-18.9,15.8-36.5C121.6,11.9,86.9-1.9,56.7.2h0ZM18.4,15.1c3.7,2.5,17.7,6.1,22.9,4.8,2.7-.6,9.1-1.8,10.8-2.9,13.4-9.1,24.6-.9,32.6,1.2,7.4,2,18.2,1.4,24.1-2.3-3.2-3.3-13.4-7.8-19-9.6C68.4-.3,42.6,1.2,22.8,12.1c0,0-4.5,3-4.5,3ZM123.5,39.2c-5,.9-21.9,5.5-25,8,1.7,5.7-1.3,9-7.2,8.6-.5,4.8-3.2,6.2-8.1,6.5-1.9,3.3-2.2,4.2-6.9,4.6-3.4.3-3.5,3.3-9.3,1.9-1.9-.5-2.7-1.5-4.1-1-1.8.7-6.7,4.9-11.4-2.7-4.5.7-6.4-.9-8-3.7-4.6,0-7.3-1.7-8.2-5.6-5.7-.1-7.5-3.2-7-8.6-4.4-2.2-6.9-3.5-12.2-5.2-3.3-1.1-10.3-3.1-13.7-3.4-.9,7.8,2.2,14.2,5.8,19.2,10.6,14.9,34.4,21.7,53.8,22,23.8.4,61.6-11,61.3-40.6h0ZM43,29.8c9.7,8,15.9-16.5,31-4.1,1.5,1.3,2.6,2,4,3.3l12.4,10.6c1.6,1.6,2.5,2,3.9,3.4,2,2.1,1.9,2.2,5,.9,6.2-2.7,16.5-6.2,23.6-7.4-.4-7.9-8-15.8-11.6-18.7-2.6.6-5.5,2.1-8.6,2.9-22,5.7-31.4-12.5-48-2.6-4.3,2.6-6.4,6.1-9.1,8.4-1.3,1.1-2,1.8-2.7,3.3h0ZM3.2,35.8c2.4,1.2,9.1,2.5,12.3,3.5,3.7,1.1,8.2,2.6,11.3,4.3,3.3,1.8,1.7,2.2,4.8.8,2.9-1.3,4.3-.6,6.5.8,2.7,1.7,1.2-1,6.1-.3,2.8.4,3.9,1.8,5,3.1,5.7-.4,8.6,1.4,8.9,7.1,6,1.1,8.2,3.9,6.9,10.5,2.3,1.1,5.5,2.2,7.6,0-.8-2-4.6-4.2-5.3-6.9,1.6-.7,4.4,2.3,6.3,4.2,2.5,2.6,5.6,2.5,6.9-1-.9-3.5-6.6-6.6-6.7-9.5,4.4-.2,8.6,12,14.2,5.9,3-3.3-2.1-6.9-5.7-10.5-1-1-2.7-1.8-2.4-3.6,3,0,9.1,8.6,12,9.2,2.4.5,3.4-.8,4.8-1.9.4-4.2-2.6-5.3-4.5-7.1-2.3-2.2-4.1-3.7-6.4-5.5l-12.9-11c-11.1-9.1-15.6,4.4-23.4,5.5-3.6.5-7.4-.5-8.8-3.2-.6-2.6,5.5-6.9,6.6-9.2-6.6,1-7.2,2.7-15,1-21.7-4.8-13.4-7.7-21-1-2.8,2.5-7.6,9.6-8,14.7h0ZM37.5,52.6c.8,5.7,2,7.5,7.7,5.7,1.8,3.6,1.2,6.3,7.8,3.5,1.3,2.2.8,3.8,3.4,5,2.5,1.1,4.8,0,5.9-1.6,1.4-2,1-4.8-.4-6.3-1.9-2.1-3.8-1.2-6.7-1,.8-6.1.8-10-7.5-6.5-.3-2.6-1.1-4.2-3.9-4.4-2.9-.2-3.7,1-5.1,2.4l-.5.5c-.9-5.2-6.2-5-7.4-1.6-.7,2.1.3,3.9,1.6,4.6,2.4,1.2,3.6-.4,5.1-.5h0Z" fill="#d85b35" fill-rule="evenodd" stroke-width="0"/>
  </g>
</svg>