<?xml version="1.0" encoding="UTF-8"?>
<svg id="Capa_1" data-name="Capa 1" xmlns="http://www.w3.org/2000/svg" xmlns:xodm="http://www.corel.com/coreldraw/odm/2003" version="1.1" viewBox="0 0 56.5 76.7">
  <g id="Capa_1-2" data-name="Capa_1">
    <path d="M16.9,19.4c2.6-3.4,6.7-5.6,11.4-5.6s8.7,2.2,11.3,5.5c1.1,1.4,2,3.1,2.5,4.9h0c.3,1.2.5,2.6.5,3.9,0,7.9-6.4,14.4-14.4,14.4s-14.4-6.4-14.4-14.4.2-2.7.5-3.9c.5-1.8,1.3-3.4,2.5-4.9h0ZM29.8,0c-.5,0-1,0-1.5,0s-1,0-1.5,0C11.8.9,0,13.2,0,28.2s1.7,11,4.6,15.4l.8,1.2h0s21.5,31.1,21.5,31.1h0c.3.5.7.8,1.3.8s1-.2,1.3-.6h0c0-.1,21.4-31.2,21.4-31.2h0c3.4-4.7,5.4-10.4,5.4-16.6C56.5,13.1,44.7.8,29.8,0h0Z" fill="#d85b35" fill-rule="evenodd" stroke-width="0"/>
  </g>
</svg>