<?xml version="1.0" encoding="UTF-8"?>
<svg id="Capa_1" data-name="Capa 1" xmlns="http://www.w3.org/2000/svg" xmlns:xodm="http://www.corel.com/coreldraw/odm/2003" version="1.1" viewBox="0 0 70.1 87.5">
  <g id="Capa_1-2" data-name="Capa_1">
    <path d="M35,87.5c1.9-1,.9-.4,2.6-2,1.1-1.1,1.4-1.5,2.4-2.6,1.7-1.9,3.1-3.2,4.9-5.2,10.4-11.4,21.9-18.9,24.5-33.9C73.7,19.9,56.9,0,35,0,13.4,0-3.2,19.5.5,43c1.8,11.2,9.2,19.1,14.6,24.4,3.4,3.3,6.9,6.7,9.8,9.7,2.7,2.9,7.2,8.3,10.1,10.3h0ZM21.6,58.7V18.6c5.7,0,17.3-.8,21.8,1,17.7,7.1,12.1,37.9-12.8,30.9-.1,4.3,0,8.6,0,12.9,0,6.2,1.4,6.3,4.5,9.3l6.1-6.1c5-5.5,13.4-11.4,17-19.9,6.2-14.5-2.1-28.5-11.4-33.5-14-7.5-28.4.4-33.5,10.3-8.3,16,1.7,32.1,8.3,35.1h0ZM30.6,31.6c0,14.3,9.8,11.7,12.4,8.7,4.8-5.7.6-12.6-7.2-12.5h-5.1c0,.1,0,3.9,0,3.9h0Z" fill="#d85b35" fill-rule="evenodd" stroke-width="0"/>
  </g>
</svg>