<?xml version="1.0" encoding="UTF-8"?>
<svg id="Capa_1" data-name="Capa 1" xmlns="http://www.w3.org/2000/svg" xmlns:xodm="http://www.corel.com/coreldraw/odm/2003" version="1.1" viewBox="0 0 119.2 89.6">
  <g id="Capa_1-2" data-name="Capa_1">
    <g id="_2425762904224" data-name=" 2425762904224">
      <path d="M111.5,72.7h-50c0,0-.1,0-.2,0-1.7,0-3-1.3-3-3s1.3-3,3-3h50.2c.9,0,1.7-.8,1.7-1.7V29H16.6V7.7C16.6,3.5,20.1,0,24.3,0h87.2c4.2,0,7.7,3.5,7.7,7.7v57.4c0,4.2-3.5,7.7-7.7,7.7h0ZM113.2,14.5v-6.8c0-.5-.2-.9-.5-1.2h0c-.3-.3-.7-.5-1.2-.5H24.3c-.9,0-1.7.7-1.7,1.7v6.8h90.6,0Z" fill="#d85b35" stroke-width="0"/>
      <path d="M95.1,59c6.1,0,11.1-5,11.1-11.1s-5-11.1-11.1-11.1-6,1.3-8.1,3.5c-2-2.1-4.9-3.5-8.1-3.5-6.1,0-11.1,5-11.1,11.1s5,11.1,11.1,11.1,6-1.3,8.1-3.5c2,2.1,4.9,3.5,8.1,3.5Z" fill="#d85b35" fill-rule="evenodd" stroke-width="0"/>
      <path d="M26.2,89.6c14.5,0,26.2-11.7,26.2-26.2s-11.7-26.2-26.2-26.2S0,48.9,0,63.4s11.7,26.2,26.2,26.2ZM27.8,70.1h0s0,0,0,0h0s0,0,0,0h0s0,0,0,0h0c0,0,0,.1,0,.1h0s0,0,0,0c0,0-.1,0-.2.1h0c0,0,0,0-.1,0h0s0,0,0,0c0,0,0,0-.1,0,0,0,0,0-.1,0h0s0,0-.1,0c-.2,0-.4,0-.7,0h0c0,0-.1,0-.2,0,0,0,0,0-.1,0h0s0,0-.1,0h0s0,0,0,0c0,0-.2,0-.2,0,0,0-.2,0-.3-.2h0s0,0,0,0h0s0,0,0,0l-11.8-9.5c-1.1-.9-1.2-2.4-.4-3.5.9-1.1,2.4-1.2,3.5-.4l9.9,8,11-13.7c.9-1.1,2.4-1.2,3.5-.4,1.1.9,1.2,2.4.4,3.5l-12.6,15.6h0Z" fill="#d85b35" fill-rule="evenodd" stroke-width="0"/>
    </g>
  </g>
</svg>