<?xml version="1.0" encoding="UTF-8"?>
<svg id="Capa_1" data-name="Capa 1" xmlns="http://www.w3.org/2000/svg" xmlns:xodm="http://www.corel.com/coreldraw/odm/2003" version="1.1" viewBox="0 0 209.9 65.4">
  <g id="Capa_1-2" data-name="Capa_1">
    <path d="M91,58.3c-1.2,0-2.3-.1-3.3-.4-1.1-.2-2-.6-2.8-1.1-.8-.5-1.4-1.2-1.9-2-.5-.8-.7-1.8-.7-2.9v-.3c0-.1,0-.2,0-.3h4.3c0,0,0,.1,0,.2v.3c0,.6.2,1.2.5,1.6.3.4.8.8,1.5,1s1.4.3,2.3.3,1.1,0,1.5-.1c.4,0,.8-.2,1.2-.3.3-.1.6-.3.8-.5.2-.2.4-.4.5-.6s.2-.5.2-.8c0-.5-.2-1-.5-1.3-.3-.3-.8-.6-1.4-.8-.6-.2-1.3-.4-2-.6-.7-.2-1.5-.4-2.3-.6-.8-.2-1.5-.5-2.3-.8-.7-.3-1.4-.7-2-1.1-.6-.4-1.1-1-1.4-1.6-.4-.7-.5-1.5-.5-2.4s.2-1.9.6-2.6c.4-.7,1-1.3,1.8-1.8.8-.5,1.6-.8,2.6-1,1-.2,2.1-.3,3.2-.3s2.1.1,3.1.3c1,.2,1.8.6,2.6,1.1.7.5,1.3,1.1,1.7,1.8.4.7.6,1.6.6,2.6v.4h-4.2v-.2c0-.5-.2-1-.5-1.3-.3-.4-.8-.7-1.3-.9s-1.2-.3-2-.3-1.5,0-2.1.2c-.6.2-1,.4-1.3.7-.3.3-.5.7-.5,1.1s.2.9.5,1.2c.3.3.8.6,1.4.8.6.2,1.3.4,2,.6.7.2,1.5.4,2.3.6.8.2,1.5.5,2.3.8.7.3,1.4.7,2,1.1.6.4,1.1,1,1.4,1.6.4.6.5,1.4.5,2.3,0,1.5-.4,2.8-1.1,3.7-.7.9-1.8,1.6-3,2-1.3.4-2.8.6-4.4.6h0Z" fill="#727376" stroke-width="0"/>
    <path d="M108.2,55.2c.5,0,1,0,1.5-.2.4-.2.8-.4,1.1-.7.3-.3.5-.6.7-1,.2-.4.2-.8.2-1.3v-.8c-1.1,0-2.1,0-2.9.2s-1.5.4-2,.7c-.5.4-.7.8-.7,1.5s0,.7.3.9c.2.3.4.5.8.6.3.1.7.2,1.2.2h0ZM106.8,58.3c-.5,0-1.1,0-1.6-.2-.6-.1-1.1-.3-1.6-.6-.5-.3-.9-.7-1.2-1.3-.3-.6-.5-1.3-.5-2.2s.2-2,.7-2.7,1.1-1.3,2-1.7c.9-.4,1.9-.7,3.1-.8,1.2-.2,2.5-.2,4-.2v-1.1c0-.4,0-.8-.2-1.2-.1-.3-.4-.6-.8-.8-.4-.2-.9-.3-1.5-.3s-1.2,0-1.6.2-.7.4-.8.6c-.2.2-.2.5-.2.8v.4h-3.9c0,0,0-.2,0-.3v-.3c0-.9.3-1.7.8-2.3.5-.7,1.3-1.2,2.3-1.5,1-.4,2.2-.5,3.5-.5s2.6.2,3.6.6c1,.4,1.7.9,2.2,1.6.5.7.8,1.6.8,2.7v7c0,.4.1.6.3.8.2.2.4.3.7.3h1v2.7c-.2.1-.5.2-.9.3-.4.1-.9.2-1.5.2s-1.1,0-1.5-.2c-.4-.2-.8-.4-1.1-.7-.3-.3-.5-.7-.6-1.1h-.2c-.3.4-.7.8-1.2,1.1-.5.3-1,.6-1.7.7s-1.4.3-2.2.3h0Z" fill="#727376" stroke-width="0"/>
    <path d="M119.7,57.9v-15.4h3.4l.3,2.1h.2c.4-.5.8-.9,1.3-1.3.5-.4,1.1-.7,1.7-.8.6-.2,1.3-.3,2-.3s1.9.2,2.7.6c.8.4,1.4,1,1.8,1.8.4.8.6,1.8.6,3.1v10.3h-4.1v-9.7c0-.5,0-.9-.2-1.2-.1-.3-.3-.6-.5-.8-.2-.2-.5-.4-.8-.5-.3,0-.7-.1-1.1-.1-.6,0-1.2.1-1.6.4-.5.3-.9.7-1.1,1.2-.3.5-.4,1.1-.4,1.8v9h-4.1,0Z" fill="#727376" stroke-width="0"/>
    <path d="M149.4,58.3c-1.5,0-2.9-.2-3.9-.7s-1.9-1.1-2.5-2.1c-.6-.9-.9-2.1-.9-3.5v-.9h4.3v.9c0,.9.3,1.6.7,2,.5.4,1.2.7,2.2.7s1.7-.3,2.2-1,.7-1.5.7-2.7v-13.2h4.4v13.2c0,1.6-.3,3-.8,4.1-.6,1.1-1.4,1.9-2.5,2.4-1.1.5-2.4.8-3.9.8h0Z" fill="#727376" stroke-width="0"/>
    <path d="M165.7,58.3c-1.6,0-2.8-.4-3.7-1.3-.9-.9-1.4-2.2-1.4-4.2v-10.3h4.1v9.6c0,.5,0,.9.2,1.3.1.3.3.6.5.8.2.2.5.4.8.5.3,0,.7.1,1.1.1.6,0,1.2-.1,1.6-.4s.9-.7,1.1-1.2c.3-.5.4-1.1.4-1.7v-9h4.1v15.4h-3.3l-.3-2.1h-.2c-.4.5-.8.9-1.3,1.3-.5.4-1.1.7-1.7.9-.6.2-1.3.3-2,.3h0Z" fill="#727376" stroke-width="0"/>
    <path d="M183.7,55.2c.5,0,1,0,1.5-.2.4-.2.8-.4,1.1-.7.3-.3.5-.6.7-1,.2-.4.2-.8.2-1.3v-.8c-1.1,0-2.1,0-2.9.2-.9.1-1.5.4-2,.7-.5.4-.7.8-.7,1.5s0,.7.3.9c.2.3.4.5.8.6.3.1.7.2,1.2.2ZM182.3,58.3c-.5,0-1.1,0-1.6-.2-.6-.1-1.1-.3-1.6-.6-.5-.3-.9-.7-1.2-1.3-.3-.6-.5-1.3-.5-2.2s.2-2,.7-2.7c.5-.7,1.1-1.3,2-1.7.9-.4,1.9-.7,3.1-.8,1.2-.2,2.5-.2,4-.2v-1.1c0-.4,0-.8-.2-1.2-.1-.3-.4-.6-.8-.8s-.9-.3-1.5-.3-1.2,0-1.6.2-.7.4-.8.6c-.2.2-.2.5-.2.8v.4h-4c0,0,0-.2,0-.3v-.3c0-.9.3-1.7.8-2.3.5-.7,1.3-1.2,2.3-1.5,1-.4,2.2-.5,3.5-.5s2.6.2,3.6.6,1.7.9,2.2,1.6c.5.7.8,1.6.8,2.7v7c0,.4.1.6.3.8.2.2.4.3.7.3h1v2.7c-.2.1-.5.2-.9.3-.4.1-.9.2-1.5.2s-1.1,0-1.5-.2c-.4-.2-.8-.4-1.1-.7-.3-.3-.5-.7-.6-1.1h-.2c-.3.4-.7.8-1.2,1.1-.5.3-1,.6-1.7.7-.6.2-1.4.3-2.2.3h0Z" fill="#727376" stroke-width="0"/>
    <path d="M195.2,57.9v-15.4h3.4l.3,2.1h.2c.4-.5.8-.9,1.3-1.3.5-.4,1.1-.7,1.7-.8s1.3-.3,2-.3,1.9.2,2.7.6c.8.4,1.4,1,1.8,1.8.4.8.6,1.8.6,3.1v10.3h-4.1v-9.7c0-.5,0-.9-.2-1.2-.1-.3-.3-.6-.5-.8-.2-.2-.5-.4-.8-.5-.3,0-.7-.1-1.1-.1-.6,0-1.2.1-1.6.4-.5.3-.9.7-1.1,1.2-.3.5-.4,1.1-.4,1.8v9h-4.1,0Z" fill="#727376" stroke-width="0"/>
    <path d="M59.8,27.1c-1,2.1-2.4,4.1-4.2,5.6,1.8,1.5,3.2,3.4,4.2,5.6l5.6-5.6-5.6-5.6h0Z" fill="#9d4eff" stroke-width="0"/>
    <path d="M32.7,9.8c1.5-1.8,3.4-3.2,5.6-4.2L32.7,0l-5.6,5.6c2.1,1,4.1,2.4,5.6,4.2Z" fill="#9d4eff" stroke-width="0"/>
    <path d="M9.8,32.7c-1.8-1.5-3.2-3.4-4.2-5.6L0,32.7l5.6,5.6c1-2.1,2.4-4.1,4.2-5.6Z" fill="#9d4eff" stroke-width="0"/>
    <path d="M32.7,55.6c-1.5,1.8-3.4,3.2-5.6,4.2l5.6,5.6,5.6-5.6c-2.1-1-4.1-2.4-5.6-4.2Z" fill="#9d4eff" stroke-width="0"/>
    <path d="M32.7,41.1c-1.3-4-4.4-7.2-8.5-8.5,4-1.3,7.2-4.4,8.5-8.5,1.3,4,4.4,7.2,8.5,8.5-4,1.3-7.2,4.4-8.5,8.5ZM57.9,20.4V7.5h-12.9c-5.8,0-10.7,3.8-12.3,9-1.6-5.2-6.5-9-12.3-9H7.5v12.9c0,5.8,3.8,10.7,9,12.3-5.2,1.6-9,6.5-9,12.3v12.9h12.9c5.8,0,10.7-3.8,12.3-9,1.6,5.2,6.5,9,12.3,9h12.9v-12.9c0-5.8-3.8-10.7-9-12.3,5.2-1.6,9-6.5,9-12.3Z" fill="#ffc14f" stroke-width="0"/>
    <path d="M93.2,31.7c-2.4,0-4.4-.4-6.1-1.3-1.7-.9-2.9-2.2-3.8-4-.9-1.8-1.3-4-1.3-6.8,0-4.1,1-7.1,3-9.1,2-2,4.7-3,8.2-3s3.8.3,5.3,1c1.5.6,2.7,1.6,3.6,2.9.9,1.3,1.3,2.9,1.3,4.9h-3.3c0-1.4-.3-2.5-.9-3.4-.6-.9-1.4-1.5-2.4-2-1-.4-2.3-.7-3.7-.7s-3,.3-4.2,1c-1.2.6-2.1,1.6-2.7,2.9-.6,1.3-.9,3-.9,5.1v.7c0,2.1.3,3.7.9,5.1.6,1.3,1.5,2.3,2.7,2.9,1.2.6,2.6.9,4.2.9s2.7-.2,3.8-.6c1.1-.4,1.9-1.1,2.4-2,.6-.9.9-2,.9-3.4h3.2c0,2-.4,3.7-1.3,5s-2.1,2.3-3.7,2.9c-1.5.6-3.3,1-5.3,1h0Z" fill="#727376" stroke-width="0"/>
    <polygon points="108 8 111.2 8 111.2 31.3 108 31.3 108 8" fill="#727376" stroke-width="0"/>
    <path d="M126.5,31.7c-2,0-3.7-.3-5.1-1-1.4-.6-2.5-1.6-3.3-3-.8-1.4-1.1-3.1-1.1-5.3V8h3.2v14.8c0,2,.6,3.6,1.6,4.6,1.1,1,2.6,1.5,4.6,1.5s3.6-.5,4.7-1.5c1.1-1,1.7-2.6,1.7-4.6V8h3.2v14.5c0,2.2-.4,3.9-1.2,5.3-.8,1.4-1.9,2.4-3.3,3-1.4.6-3.2,1-5.2,1Z" fill="#727376" stroke-width="0"/>
    <path d="M145.1,28.5h5.4c1.3,0,2.4-.2,3.5-.5,1-.3,1.9-.8,2.6-1.5.7-.7,1.3-1.6,1.7-2.6.4-1.1.6-2.4.6-3.9v-.7c0-1.5-.2-2.9-.6-3.9-.4-1.1-.9-2-1.6-2.6-.7-.7-1.6-1.2-2.6-1.5-1-.3-2.2-.5-3.5-.5h-5.4v17.7h0ZM141.9,31.3V8h8.7c2.5,0,4.5.4,6.3,1.2,1.7.8,3,2.1,4,3.8.9,1.7,1.4,3.9,1.4,6.6s-.5,4.9-1.4,6.6c-.9,1.7-2.2,3-4,3.8-1.7.8-3.8,1.2-6.3,1.2h-8.7Z" fill="#727376" stroke-width="0"/>
    <path d="M170.4,22.8h9.2l-2.8-7.3c0-.2-.2-.5-.3-.9-.1-.4-.3-.8-.4-1.2-.2-.4-.3-.9-.5-1.4-.2-.5-.3-.9-.4-1.3h-.2c-.2.5-.3,1-.5,1.6-.2.6-.4,1.2-.6,1.7-.2.6-.4,1-.5,1.4l-2.9,7.3h0ZM163.7,31.3l9.2-23.3h4.3l9.2,23.3h-3.5l-2.3-5.8h-11.4l-2.2,5.8h-3.3,0Z" fill="#727376" stroke-width="0"/>
    <path d="M192.8,28.5h5.4c1.3,0,2.4-.2,3.5-.5,1-.3,1.9-.8,2.6-1.5.7-.7,1.3-1.6,1.7-2.6.4-1.1.6-2.4.6-3.9v-.7c0-1.5-.2-2.9-.6-3.9-.4-1.1-.9-2-1.6-2.6-.7-.7-1.6-1.2-2.6-1.5-1-.3-2.2-.5-3.5-.5h-5.4v17.7h0ZM189.6,31.3V8h8.7c2.4,0,4.5.4,6.3,1.2,1.7.8,3,2.1,4,3.8.9,1.7,1.4,3.9,1.4,6.6s-.5,4.9-1.4,6.6c-.9,1.7-2.2,3-4,3.8-1.7.8-3.8,1.2-6.3,1.2h-8.7Z" fill="#727376" stroke-width="0"/>
  </g>
</svg>