<?xml version="1.0" encoding="UTF-8"?>
<svg id="Capa_1" data-name="Capa 1" xmlns="http://www.w3.org/2000/svg" xmlns:xodm="http://www.corel.com/coreldraw/odm/2003" version="1.1" viewBox="0 0 68.5 84.3">
  <g id="Capa_1-2" data-name="Capa_1">
    <g id="_2425859455392" data-name=" 2425859455392">
      <path d="M58,23.6c0,1.4-1.2,2.6-2.6,2.6h-21c-1.4,0-2.6-1.2-2.6-2.6s1.2-2.6,2.6-2.6h21c1.4,0,2.6,1.2,2.6,2.6ZM50.1,36.8h-15.7c-1.4,0-2.6-1.2-2.6-2.6s1.2-2.6,2.6-2.6h15.7c1.4,0,2.6,1.2,2.6,2.6s-1.2,2.6-2.6,2.6ZM34.4,0C27.2,0,21.3,5.9,21.3,13.2v24.8c12.7,0,23.2,9.4,24.9,21.7l4.3,2.9c.9.6,2.1.6,3,0l5.5-3.8,5.5,3.8c1.2.8,2.8.5,3.6-.7.3-.4.5-.9.5-1.5V13.1C68.5,5.9,62.6,0,55.4,0h-21,0Z" fill="#d85b35" stroke-width="0"/>
      <path d="M21.3,84.3c11.7,0,21.3-9.5,21.3-21.3s-9.5-21.3-21.3-21.3S0,51.2,0,63s9.5,21.3,21.3,21.3ZM22.6,68.4h0s0,0,0,0h0s0,0,0,0h0s0,0,0,0h0c0,0,0,0,0,.1h0s0,0,0,0c0,0-.1,0-.2.1h0s0,0,0,0h0s0,0,0,0c0,0,0,0,0,0,0,0,0,0-.1,0h0s0,0-.1,0c-.2,0-.3,0-.5,0h0s0,0-.1,0c0,0,0,0-.1,0h0s0,0-.1,0h0s0,0,0,0c0,0-.1,0-.2,0,0,0-.1,0-.2-.1h0s0,0,0,0h0s0,0,0,0l-7.2-5.8c-.9-.7-1-2-.3-2.9.7-.9,2-1,2.9-.3l5.7,4.5,9-11.1c.7-.9,2-1,2.9-.3.9.7,1,2,.3,2.9l-10.2,12.7h0Z" fill="#d85b35" fill-rule="evenodd" stroke-width="0"/>
    </g>
  </g>
</svg>