<?xml version="1.0" encoding="UTF-8"?>
<svg id="Capa_1" data-name="Capa 1" xmlns="http://www.w3.org/2000/svg" version="1.1" viewBox="0 0 682.7 681.3">
  <path d="M499.2,409.3c-22.1-11.1-44-22.5-66.9-31.9-6.6-2.7-11.7-1.2-16.1,4.8-7.5,10.1-15.8,19.7-23.7,29.5-4.5,5.6-9.7,6.7-16.4,4-46.7-18.7-82.5-49.9-108.3-92.9-3.7-6.2-3.6-11.2,1.2-16.8,7.1-8.2,13.7-16.8,19.5-26,2.6-4.1,3.9-8.4,1.9-13.2-9-21.6-17.9-43.2-27-64.8-3-7.2-8.2-11.4-16.6-10.5-2.2.2-4.4,0-7.2,0-9.8-1.1-19.3.4-27.2,8-25.4,24.5-34.1,54.2-26.6,88.4,5.3,24.3,18.1,44.8,32.3,64.8,45,63.1,101.1,110.9,177.3,132.1,21,5.8,42.1,7.8,62.5-.8,35.7-15.1,45.5-31,46.5-65,.1-4.3-1.1-7.8-5.2-9.9Z" fill="#000" stroke-width="0"/>
  <path d="M640.4,228.7c-43.6-117.8-131.5-186.6-256.5-204.7-72.7-10.5-141.2,4.8-203.7,43.1C34.1,156.5-14.8,341.3,67.4,490.9c1.8,3.3,2.2,6.2,1.1,10-14.5,52.4-28.7,104.8-43.4,158.5,3.1-.7,5.2-1.2,7.2-1.7,51.3-13.4,102.7-26.8,153.9-40.4,4.6-1.2,8.3-.8,12.5,1.4,61.4,31.6,126.5,42.4,194.5,31.5,76.6-12.2,141.3-47.6,190.8-107.3,77.6-93.7,98.4-200.4,56.2-314.1ZM447.9,578.8c-81.6,35.2-161.9,28.6-238.9-15.7-6.3-3.6-11.6-4.2-18.5-2.3-29.4,8.1-58.9,15.6-89.5,23.6,8.4-30.8,16.4-60.6,24.8-90.4,1.4-4.9.7-8.6-2-12.8-31.2-48.1-45.7-101-42.2-158.2,4.3-72.1,33.7-132.7,87.2-181.2,38.4-34.8,83.6-55.8,134.6-64.2,134.4-22.3,267.6,67.9,296.8,200.8,27.6,126-34,249.3-152.3,300.4Z" fill="#000" stroke-width="0"/>
</svg>